<svg width="56" height="55" viewBox="0 0 56 55" fill="none" xmlns="http://www.w3.org/2000/svg">
<path d="M25.9372 0C11.4713 0.844683 0 12.8315 0 27.5005C0 34.7949 2.84075 41.4205 7.47166 46.3472V38.4032C5.70542 35.1624 4.69789 31.4493 4.69789 27.4988C4.69789 21.073 7.3558 15.2702 11.6289 11.1178V43.8828V49.9708C13.2051 51.0888 14.9023 52.0475 16.6996 52.8188V47.6141V47.4419V7.38696C18.0161 6.67515 19.4105 6.0897 20.8664 5.64431V49.3564C20.863 49.355 20.8599 49.3536 20.8565 49.353V54.2216C22.4943 54.6311 24.1884 54.8979 25.9269 55V49.1815H25.9369V13.6379V4.70945V0H25.9372Z" fill="url(#paint0_linear_405_4)"/>
<path d="M55.0173 24.9642H50.2969C50.2969 24.9648 50.2972 24.9655 50.2972 24.9665H41.3628V30.034H50.2972C49.3129 38.9412 43.208 46.3029 34.9882 49.1194V5.88109C41.8908 8.24641 47.3003 13.8169 49.4404 20.8149H54.3167C51.5098 9.56211 41.7842 1.04663 29.915 0.046875V4.7635C29.9161 4.7635 29.9171 4.7635 29.9181 4.7635V49.1809V50.2356V54.9461C44.0439 53.7541 55.1386 41.9254 55.1386 27.4996C55.1383 26.6446 55.0935 25.7996 55.0173 24.9642Z" fill="url(#paint1_linear_405_4)"/>
<defs>
<linearGradient id="paint0_linear_405_4" x1="12.9686" y1="0" x2="12.9686" y2="55" gradientUnits="userSpaceOnUse">
<stop stop-color="#678ACD"/>
<stop offset="0.619792" stop-color="white"/>
</linearGradient>
<linearGradient id="paint1_linear_405_4" x1="42.5268" y1="0.046875" x2="42.5268" y2="54.9461" gradientUnits="userSpaceOnUse">
<stop stop-color="#678ACD"/>
<stop offset="0.619792" stop-color="white"/>
</linearGradient>
</defs>
</svg>
